<?xml version="1.0" standalone="no"?>
<!DOCTYPE svg PUBLIC "-//W3C//DTD SVG 20010904//EN"
 "http://www.w3.org/TR/2001/REC-SVG-20010904/DTD/svg10.dtd">
<svg version="1.0" xmlns="http://www.w3.org/2000/svg"
 width="484.000000pt" height="194.000000pt" viewBox="0 0 484.000000 194.000000"
 preserveAspectRatio="xMidYMid meet">

<g transform="translate(0.000000,194.000000) scale(0.100000,-0.100000)"
fill="#000000" stroke="none">
<path d="M951 1794 l-54 -48 78 -24 c42 -13 78 -22 79 -20 0 2 23 27 50 55 49
52 49 52 25 61 -13 5 -47 13 -75 16 -50 7 -51 7 -103 -40z"/>
<path d="M1391 1829 c-25 -5 -48 -12 -52 -16 -4 -5 15 -32 42 -60 l50 -53 74
22 c73 21 74 22 57 41 -28 32 -94 77 -111 76 -9 -1 -36 -5 -60 -10z"/>
<path d="M1170 1709 l-50 -50 57 -57 58 -57 61 55 62 55 -51 53 c-28 28 -59
52 -69 52 -9 0 -40 -23 -68 -51z"/>
<path d="M3171 1718 c-48 -18 -74 -57 -74 -113 0 -62 25 -93 106 -132 75 -36
94 -68 62 -103 -32 -35 -75 -19 -75 27 0 21 -4 23 -51 23 l-52 0 6 -37 c4 -20
18 -48 32 -62 21 -21 36 -26 92 -29 103 -4 153 33 156 120 3 68 -16 94 -100
134 -77 36 -99 67 -72 100 19 23 62 14 69 -16 5 -22 12 -25 53 -28 52 -3 55 2
36 56 -6 17 -22 38 -35 47 -33 22 -111 28 -153 13z"/>
<path d="M3666 1720 c-74 -23 -102 -95 -94 -244 6 -108 24 -151 73 -172 43
-18 106 -18 149 0 54 23 71 70 71 206 0 125 -10 158 -55 192 -30 21 -104 31
-144 18z m85 -76 c15 -18 20 -209 6 -256 -9 -33 -43 -46 -65 -24 -21 21 -29
192 -13 254 10 34 16 42 35 42 13 0 30 -7 37 -16z"/>
<path d="M2500 1510 l0 -210 50 0 49 0 3 88 c2 69 6 87 18 88 8 1 38 2 65 3
l50 1 0 35 0 35 -67 0 -68 0 0 45 0 45 70 0 70 0 0 40 0 40 -120 0 -120 0 0
-210z"/>
<path d="M2776 1712 c-8 -14 -6 -274 3 -321 13 -67 47 -94 123 -99 72 -4 121
19 138 64 6 14 10 102 10 195 l0 170 -47 -3 -48 -3 -5 -174 c-4 -149 -7 -175
-22 -185 -13 -8 -22 -6 -37 8 -20 18 -21 30 -21 188 l0 168 -44 0 c-25 0 -47
-4 -50 -8z"/>
<path d="M3420 1510 l0 -210 50 0 50 0 0 210 0 210 -50 0 -50 0 0 -210z"/>
<path d="M3920 1510 l0 -210 40 0 40 0 0 142 c0 78 4 138 8 133 5 -6 26 -70
47 -142 l38 -133 59 0 58 0 0 210 0 210 -45 0 -45 0 0 -137 c0 -138 -7 -155
-29 -73 -7 25 -23 82 -37 128 l-25 82 -54 0 -55 0 0 -210z"/>
<path d="M682 1639 c-69 -22 -82 -36 -106 -117 -15 -51 -14 -54 2 -47 9 4 44
12 76 19 l60 12 12 60 c7 32 15 67 19 77 4 9 6 17 4 16 -2 0 -32 -9 -67 -20z"/>
<path d="M820 1594 c-11 -36 -20 -71 -20 -78 0 -7 27 -17 63 -23 34 -6 69 -14
78 -17 12 -5 19 6 33 56 10 35 21 71 23 80 4 13 -7 20 -48 32 -29 9 -65 16
-80 16 -26 0 -30 -5 -49 -66z"/>
<path d="M1534 1646 c-60 -19 -66 -24 -54 -46 6 -10 16 -43 24 -72 9 -33 19
-52 27 -51 8 1 43 8 79 16 74 16 73 15 43 115 -15 48 -18 52 -47 51 -17 0 -49
-6 -72 -13z"/>
<path d="M1734 1637 c4 -12 12 -48 18 -79 11 -53 14 -58 38 -58 15 0 48 -6 73
-14 56 -17 57 -14 26 69 -22 59 -27 63 -118 91 -43 14 -43 13 -37 -9z"/>
<path d="M1072 1564 c-5 -10 -16 -45 -23 -77 l-13 -59 35 -26 c18 -15 42 -35
52 -45 10 -10 20 -17 21 -15 1 2 9 23 18 48 9 25 19 53 23 62 5 13 -8 33 -48
75 -50 52 -55 55 -65 37z"/>
<path d="M1340 1525 l-52 -53 23 -65 23 -64 53 41 c48 37 53 44 48 71 -10 56
-28 115 -35 120 -3 2 -30 -20 -60 -50z"/>
<path d="M660 1414 c-112 -37 -112 -36 -83 -137 14 -52 18 -58 37 -52 12 4 47
14 79 23 50 15 57 20 52 37 -3 11 -11 46 -18 78 -12 59 -21 65 -67 51z"/>
<path d="M800 1411 c0 -5 9 -39 20 -75 16 -52 25 -67 43 -70 12 -2 44 -9 70
-14 43 -8 47 -8 42 7 -4 9 -9 37 -12 63 -7 56 -11 61 -82 82 -62 18 -81 20
-81 7z"/>
<path d="M1584 1399 c-61 -19 -61 -19 -67 -64 -4 -25 -9 -56 -13 -69 -5 -23
-5 -23 43 -14 26 5 57 12 68 14 22 3 43 48 55 117 9 44 4 45 -86 16z"/>
<path d="M1759 1398 c0 -13 -8 -48 -17 -78 l-18 -55 66 -18 c36 -10 72 -19 80
-20 15 -2 36 47 46 113 l6 38 -67 21 c-85 26 -95 26 -96 -1z"/>
<path d="M427 1270 c-26 -29 -47 -60 -47 -69 0 -16 17 -96 25 -118 2 -7 27 10
60 41 l55 54 -23 72 -23 72 -47 -52z"/>
<path d="M1980 1249 l-25 -74 57 -53 57 -54 9 39 c26 102 26 105 -26 163 l-48
53 -24 -74z"/>
<path d="M1230 1257 c0 -9 -4 -17 -8 -17 -4 0 -8 -8 -8 -19 0 -13 7 -18 23
-17 29 1 34 26 11 50 -16 17 -18 18 -18 3z"/>
<path d="M1097 1215 c-11 -8 -14 -16 -8 -19 6 -4 7 -14 4 -24 -6 -14 -4 -15 8
-5 12 10 18 10 29 0 10 -10 12 -9 7 4 -3 9 0 22 6 28 8 8 7 11 -5 11 -9 0 -18
4 -20 9 -1 5 -11 4 -21 -4z"/>
<path d="M1350 1220 c0 -5 -8 -10 -17 -11 -11 0 -13 -3 -5 -6 6 -2 12 -11 12
-19 0 -9 5 -12 10 -9 6 4 18 1 26 -6 12 -10 13 -9 8 6 -4 10 -1 21 7 26 11 7
11 9 -3 9 -10 0 -18 5 -18 10 0 6 -4 10 -10 10 -5 0 -10 -4 -10 -10z"/>
<path d="M2834 1181 c-47 -29 -59 -70 -59 -201 0 -126 9 -158 58 -194 37 -27
131 -29 170 -3 49 32 61 70 62 197 0 136 -16 183 -71 206 -48 20 -123 18 -160
-5z m109 -56 c30 -30 34 -248 5 -282 -6 -7 -21 -13 -34 -13 -19 0 -25 8 -35
43 -15 55 -8 229 10 251 17 20 35 20 54 1z"/>
<path d="M2500 980 l0 -210 50 0 50 0 0 90 0 90 65 0 65 0 0 40 0 40 -66 0
-65 0 3 41 3 42 68 0 67 0 0 38 0 39 -120 0 -120 0 0 -210z"/>
<path d="M3120 980 l0 -210 45 0 44 0 3 88 c3 85 4 87 29 90 38 4 52 -20 58
-101 l6 -72 50 -3 51 -3 -9 73 c-13 110 -14 114 -44 128 -20 9 -24 14 -13 18
48 16 70 75 50 136 -19 57 -40 66 -162 66 l-108 0 0 -210z m158 134 c12 -8 22
-26 22 -40 0 -31 -35 -66 -63 -62 -18 2 -23 11 -25 47 -2 24 -1 50 2 57 7 19
36 18 64 -2z"/>
<path d="M690 1161 l-55 -17 57 -56 57 -56 53 19 c29 11 59 22 66 24 9 3 0 21
-29 55 -48 57 -61 59 -149 31z"/>
<path d="M1644 1137 c-17 -23 -30 -46 -30 -52 0 -5 24 -20 53 -31 l52 -22 40
29 c34 26 71 69 71 83 0 8 -101 36 -129 36 -19 -1 -35 -13 -57 -43z"/>
<path d="M1438 1128 c-10 -10 -13 -20 -8 -23 5 -3 6 -13 3 -23 -6 -14 -4 -15
8 -5 12 10 18 10 29 0 10 -10 12 -9 7 4 -3 9 -2 20 2 25 5 5 1 16 -8 24 -14
13 -18 13 -33 -2z"/>
<path d="M1015 1128 c-4 -10 -12 -15 -18 -11 -7 4 -8 0 -4 -11 4 -10 7 -21 7
-24 0 -4 11 -8 24 -8 17 -1 23 2 19 12 -3 8 0 14 6 14 6 0 11 5 11 11 0 5 -4
8 -9 4 -6 -3 -14 3 -20 12 -9 17 -10 17 -16 1z"/>
<path d="M526 1070 c-20 -18 -45 -45 -57 -61 l-20 -28 56 -58 55 -57 54 54
c29 30 54 57 56 60 2 3 -22 31 -52 63 l-56 59 -36 -32z"/>
<path d="M1853 1041 l-52 -56 56 -58 55 -58 33 26 c35 26 75 76 75 93 0 13
-96 112 -107 111 -4 -1 -31 -27 -60 -58z"/>
<path d="M1480 1013 c0 -7 -7 -13 -16 -13 -13 0 -14 -3 -4 -15 6 -8 9 -18 6
-23 -3 -6 5 -9 19 -8 14 0 25 4 25 8 0 3 3 15 7 25 3 10 3 15 -2 11 -4 -4 -14
0 -21 10 -8 10 -13 12 -14 5z"/>
<path d="M979 997 c-10 -8 -13 -20 -9 -37 4 -17 8 -21 14 -12 6 10 11 10 22 1
12 -10 13 -9 8 6 -4 10 -1 21 7 26 11 7 11 9 -3 9 -9 0 -18 4 -20 9 -2 5 -10
4 -19 -2z"/>
<path d="M693 883 l-58 -56 34 -14 c19 -8 55 -17 80 -20 45 -5 47 -4 89 46 38
44 41 52 25 57 -10 3 -39 14 -65 24 l-47 18 -58 -55z"/>
<path d="M1658 912 c-27 -9 -47 -21 -46 -27 0 -5 15 -29 32 -52 22 -30 38 -42
57 -43 34 0 129 29 129 39 0 16 -93 101 -109 100 -9 0 -37 -8 -63 -17z"/>
<path d="M406 891 c-2 -3 -10 -34 -16 -68 -14 -68 -7 -84 59 -147 l30 -29 6
29 c4 16 14 48 22 72 l16 43 -57 53 c-31 29 -59 50 -60 47z"/>
<path d="M2046 879 c-8 -14 -33 -38 -53 -53 l-38 -29 24 -74 24 -74 30 28 c62
59 68 75 56 139 -15 82 -23 93 -43 63z"/>
<path d="M1015 878 c-4 -10 -12 -15 -18 -11 -7 4 -8 0 -4 -11 4 -10 7 -21 7
-24 0 -4 11 -8 24 -8 17 -1 23 2 19 12 -3 8 0 14 6 14 6 0 11 5 11 11 0 5 -4
8 -9 4 -6 -3 -14 3 -20 12 -9 17 -10 17 -16 1z"/>
<path d="M1451 883 c-1 -7 -9 -13 -18 -13 -13 0 -14 -3 -6 -11 6 -6 9 -17 7
-23 -2 -6 6 -11 21 -11 15 0 23 5 21 11 -2 6 1 17 7 23 8 8 7 11 -5 11 -9 0
-19 6 -21 13 -4 10 -6 10 -6 0z"/>
<path d="M1107 786 c-4 -10 -12 -14 -19 -10 -8 5 -9 2 -5 -10 4 -10 7 -21 7
-24 0 -4 11 -8 24 -8 17 -1 23 2 19 12 -3 8 0 14 6 14 6 0 11 5 11 10 0 6 -6
10 -14 10 -8 0 -16 5 -18 12 -3 7 -7 5 -11 -6z"/>
<path d="M1361 793 c-1 -7 -9 -13 -18 -13 -13 0 -14 -3 -6 -11 6 -6 9 -17 7
-23 -2 -6 6 -11 21 -11 15 0 23 5 21 11 -2 6 1 17 7 23 8 8 7 11 -5 11 -9 0
-19 6 -21 13 -4 10 -6 10 -6 0z"/>
<path d="M1230 756 c0 -13 -5 -16 -16 -12 -14 5 -15 4 -5 -8 7 -8 10 -19 7
-24 -3 -6 5 -9 19 -8 14 0 25 4 25 8 0 3 3 15 7 25 3 10 3 15 -2 11 -4 -4 -14
0 -21 10 -13 16 -13 16 -14 -2z"/>
<path d="M577 693 c-25 -88 -23 -98 23 -117 22 -9 57 -18 77 -22 l38 -6 12 59
c7 32 15 67 18 78 5 17 -2 22 -52 37 -32 9 -67 19 -79 23 -19 6 -23 0 -37 -52z"/>
<path d="M1815 729 c-27 -10 -60 -18 -72 -19 -21 0 -22 -2 -9 -38 7 -20 17
-57 21 -81 l7 -43 39 6 c70 11 119 36 118 60 -1 33 -33 129 -44 131 -6 1 -32
-6 -60 -16z"/>
<path d="M945 719 c-16 -4 -47 -10 -67 -13 -37 -7 -38 -9 -59 -77 -12 -39 -18
-73 -15 -76 10 -11 138 31 146 47 7 14 30 124 26 126 0 1 -14 -2 -31 -7z"/>
<path d="M1504 704 c4 -13 9 -44 12 -68 6 -41 10 -46 45 -60 21 -9 56 -19 78
-22 45 -7 45 -10 14 93 -15 49 -18 53 -52 58 -20 3 -51 10 -69 15 -32 8 -34 8
-28 -16z"/>
<path d="M3875 673 c-90 -20 -108 -50 -113 -193 -7 -177 24 -240 116 -240 35
0 57 6 76 21 21 17 26 18 26 5 0 -12 10 -16 35 -16 l35 0 0 110 0 110 -70 0
-70 0 0 -29 c0 -23 5 -30 23 -33 22 -3 25 -19 12 -75 -7 -29 -43 -40 -64 -19
-21 21 -29 201 -11 259 10 33 15 38 38 35 21 -2 29 -11 37 -35 8 -31 12 -33
52 -33 39 0 43 2 43 24 0 38 -17 73 -42 90 -26 16 -92 27 -123 19z"/>
<path d="M2500 460 l0 -210 125 0 125 0 0 35 0 35 -75 0 -75 0 0 50 0 50 65 0
65 0 0 40 0 40 -65 0 -65 0 0 45 0 45 70 0 70 0 0 40 0 40 -120 0 -120 0 0
-210z"/>
<path d="M2790 460 l0 -210 45 0 44 0 3 142 3 141 40 -139 41 -139 57 -3 57
-3 0 211 0 210 -45 0 -44 0 -3 -137 -3 -138 -40 135 -40 135 -57 3 -58 3 0
-211z"/>
<path d="M3140 460 l0 -210 125 0 125 0 0 35 0 35 -75 0 -75 0 0 50 0 50 64 0
64 0 4 40 4 40 -68 0 -68 0 0 45 0 45 70 0 70 0 0 40 0 40 -120 0 -120 0 0
-210z"/>
<path d="M3430 460 l0 -210 50 0 50 0 0 85 0 85 28 0 c41 0 52 -17 52 -81 0
-83 4 -89 59 -89 l47 0 -4 67 c-4 80 -17 120 -42 128 -16 5 -14 9 11 35 52 51
33 156 -32 179 -18 6 -74 11 -125 11 l-94 0 0 -210z m168 128 c7 -7 12 -26 12
-43 0 -38 -16 -55 -52 -55 -27 0 -28 1 -28 55 0 54 1 55 28 55 15 0 33 -5 40
-12z"/>
<path d="M4070 665 c0 -3 23 -61 50 -127 46 -112 50 -127 50 -204 l0 -84 50 0
50 0 0 79 c0 72 4 90 46 188 25 59 50 118 55 131 8 21 6 22 -45 22 l-53 0 -23
-76 c-12 -41 -25 -73 -28 -69 -3 3 -15 36 -27 73 l-21 67 -52 3 c-29 2 -52 0
-52 -3z"/>
<path d="M1130 622 c0 -5 -21 -24 -46 -43 -45 -33 -45 -34 -39 -79 4 -25 13
-61 22 -80 l14 -35 56 58 c41 43 53 62 47 75 -4 9 -14 38 -23 64 -14 42 -31
64 -31 40z"/>
<path d="M1312 563 l-23 -64 25 -30 c14 -16 39 -41 56 -55 l30 -26 10 28 c13
34 33 125 28 127 -1 1 -26 21 -53 43 l-51 42 -22 -65z"/>
<path d="M576 448 c24 -81 37 -95 106 -117 35 -10 64 -18 65 -17 1 1 -20 93
-33 144 -2 6 -16 12 -32 12 -16 0 -49 7 -72 15 -23 8 -44 15 -46 15 -1 0 4
-24 12 -52z"/>
<path d="M905 485 c-22 -8 -52 -14 -67 -14 -15 -1 -30 -6 -33 -11 -4 -6 3 -42
14 -80 20 -65 24 -70 49 -70 16 0 52 7 81 16 41 12 52 19 48 32 -2 9 -13 45
-22 80 -10 34 -21 62 -24 61 -3 -1 -24 -7 -46 -14z"/>
<path d="M1510 458 c-6 -23 -17 -58 -25 -76 l-15 -33 36 -15 c20 -8 58 -18 84
-21 l49 -6 15 54 c28 102 29 100 -39 115 -33 7 -68 15 -77 19 -13 5 -19 -2
-28 -37z"/>
<path d="M1898 495 c-3 -3 -34 -11 -68 -18 l-63 -13 -18 -74 c-11 -40 -18 -74
-16 -76 1 -1 30 7 64 17 55 17 66 25 82 57 27 53 40 128 19 107z"/>
<path d="M1177 367 l-58 -58 56 -55 c46 -44 59 -52 74 -44 18 9 114 102 109
105 -2 0 -30 26 -63 56 l-60 54 -58 -58z"/>
<path d="M967 246 l-69 -23 52 -46 c29 -26 60 -47 71 -47 20 0 122 20 128 26
4 4 -102 114 -109 113 -3 -1 -36 -11 -73 -23z"/>
<path d="M1378 216 c-27 -29 -48 -55 -48 -58 0 -3 29 -11 64 -18 73 -14 84
-10 147 47 l40 36 -73 23 c-40 13 -75 23 -78 23 -3 -1 -26 -25 -52 -53z"/>
</g>
</svg>
