<?xml version="1.0" standalone="no"?>
<!DOCTYPE svg PUBLIC "-//W3C//DTD SVG 20010904//EN"
 "http://www.w3.org/TR/2001/REC-SVG-20010904/DTD/svg10.dtd">
<svg version="1.0" xmlns="http://www.w3.org/2000/svg"
 width="196.000000pt" height="262.000000pt" viewBox="0 0 196.000000 262.000000"
 preserveAspectRatio="xMidYMid meet">

<g transform="translate(0.000000,262.000000) scale(0.100000,-0.100000)"
fill="#000000" stroke="none">
<path d="M22 2601 l-22 -18 0 -1272 c0 -1258 0 -1271 20 -1291 20 -20 33 -20
958 -20 l939 0 19 21 c18 20 19 58 22 1290 2 1260 2 1269 -18 1289 -20 20 -32
20 -958 20 -902 0 -940 -1 -960 -19z m1888 -1291 l0 -1260 -935 0 -935 0 0
1229 c0 676 3 1243 6 1260 l7 31 928 0 929 0 0 -1260z"/>
<path d="M120 1640 l0 -850 860 0 860 0 -2 848 -3 847 -857 3 -858 2 0 -850z
m245 -5 l0 -670 -52 -3 -53 -3 0 669 c0 368 3 672 7 676 4 4 28 6 53 4 l45 -3
0 -670z m496 637 l29 -32 0 -381 c0 -412 -1 -423 -55 -447 -14 -7 -64 -12
-110 -12 l-85 0 0 -221 0 -220 -52 3 -53 3 -3 660 c-1 363 0 666 3 673 4 11
37 13 151 10 l146 -3 29 -33z m470 0 l29 -32 0 -386 c0 -245 -4 -392 -10 -405
-19 -35 -64 -49 -155 -49 l-85 0 0 -220 0 -220 -50 0 -50 0 0 676 0 675 146
-3 146 -3 29 -33z m464 -12 l0 -45 -72 -3 -73 -3 0 -624 0 -625 -45 0 -45 0 0
625 0 625 -75 0 -75 0 0 50 0 50 193 -2 192 -3 0 -45z"/>
<path d="M640 1855 l0 -355 70 0 70 0 0 355 0 355 -70 0 -70 0 0 -355z"/>
<path d="M1110 1855 l0 -355 75 0 75 0 -2 353 -3 352 -72 3 -73 3 0 -356z"/>
<path d="M140 411 l0 -291 30 0 29 0 3 78 3 77 169 5 169 5 21 28 c19 26 21
42 21 178 l0 149 -28 27 -27 28 -195 3 -195 4 0 -291z m376 192 c12 -27 15
-63 12 -141 -4 -137 1 -133 -183 -130 l-140 3 -3 153 -3 152 151 0 151 0 15
-37z"/>
<path d="M812 663 c-32 -64 -242 -529 -242 -536 0 -4 14 -7 30 -7 27 0 33 6
57 55 l27 55 217 0 218 0 25 -55 c22 -49 28 -55 55 -55 17 0 31 3 31 7 0 3
-57 134 -127 290 l-127 283 -73 0 -73 0 -18 -37z m199 -183 c43 -96 78 -178
78 -182 1 -5 -84 -8 -189 -8 -104 0 -190 2 -190 4 0 10 153 342 163 354 6 7
21 12 35 10 21 -3 34 -25 103 -178z"/>
<path d="M1310 410 l0 -290 35 0 35 0 0 221 c0 121 4 219 8 217 5 -1 97 -101
206 -221 129 -141 204 -217 215 -215 14 3 16 33 16 288 l0 285 -28 0 -29 0 2
-217 c0 -172 -2 -218 -12 -217 -7 0 -100 99 -206 220 -152 173 -198 219 -218
219 l-24 0 0 -290z"/>
</g>
</svg>
