<?xml version="1.0" encoding="UTF-8" standalone="no"?>
<svg
   xmlns:dc="http://purl.org/dc/elements/1.1/"
   xmlns:cc="http://creativecommons.org/ns#"
   xmlns:rdf="http://www.w3.org/1999/02/22-rdf-syntax-ns#"
   xmlns:svg="http://www.w3.org/2000/svg"
   xmlns="http://www.w3.org/2000/svg"
   viewBox="0 0 845.33331 540"
   height="540"
   width="845.33331"
   xml:space="preserve"
   id="svg2"
   version="1.1"><metadata
     id="metadata8"><rdf:RDF><cc:Work
         rdf:about=""><dc:format>image/svg+xml</dc:format><dc:type
           rdf:resource="http://purl.org/dc/dcmitype/StillImage" /></cc:Work></rdf:RDF></metadata><defs
     id="defs6" /><g
     transform="matrix(1.3333333,0,0,-1.3333333,0,540)"
     id="g10"><g
       transform="scale(0.1)"
       id="g12"><path
         id="path14"
         style="fill:#e01546;fill-opacity:1;fill-rule:nonzero;stroke:none"
         d="m 2557.45,2022.94 c -30.53,31.64 -128.65,127.68 -221.38,191.84 259.26,-310.59 241.04,-492.76 202.62,-559.82 -36.6,-63.7 -124.23,-88.59 -245.57,-78.4 -0.55,-2.85 -20.4,-95.48 -32.11,-136.93 249.83,-59.69 432.12,-34.65 498.76,81.55 68.42,119.08 -16.53,308.84 -202.32,501.76 m -754.56,-43.51 c 0,-18.02 14.61,-32.66 32.51,-32.66 18.03,0 32.53,14.64 32.53,32.66 0,18.15 -14.5,32.7 -32.53,32.7 -17.9,0 -32.51,-14.55 -32.51,-32.7 m 93.86,199.16 c 85.46,0 154.74,-69.77 154.74,-155.65 0,-85.97 -69.28,-155.72 -154.74,-155.72 -85.46,0 -154.7,69.75 -154.7,155.72 0,85.88 69.24,155.65 154.7,155.65 m -403.64,-230.42 c 184.41,-151.13 357.39,-256.33 604.26,-332.84 -13.3,-45.52 -41.11,-113.43 -42.08,-115.52 -424.91,156.31 -705.69,401.15 -820.72,523.13 -183.79,194.87 -270.777,382.63 -202.41,501.73 68.41,119.17 329.11,185.4 808.1,-25.37 -375.73,87.41 -536.04,-12.06 -573.37,-110.97 -72.18,-191.27 197.07,-416.25 226.22,-440.16" /><path
         id="path16"
         style="fill:#9e9c9d;fill-opacity:1;fill-rule:nonzero;stroke:none"
         d="m 2759.77,2524.67 c -68.33,119.18 -274.18,140.04 -533.07,74.57 -42.48,-10.78 -430.43,-100.87 -864.16,-455.22 18.69,-29.31 69.97,-85.43 78.84,-94.02 305.82,288.62 661.85,384.36 695.4,392.6 231.33,57.08 347.71,9.06 399.37,-48.35 98.12,-109.03 62.25,-289.42 56.47,-328.25 177.26,188.36 234,342.22 167.15,458.67 M 1516.3,1446.99 c -258.89,-65.54 -415.74,-45.03 -484.15,74.19 -66.447,115.72 -1.47,283.41 173.69,470.6 26.79,-31.41 68.65,-66.93 103.25,-94.6 -67.4,-99.18 -71.09,-182.63 -54.17,-254.31 27.6,-116.61 133.93,-176.62 261.38,-195.88" /><path
         id="path18"
         style="fill:#4d494a;fill-opacity:1;fill-rule:nonzero;stroke:none"
         d="m 2265.76,2421.47 c -1.56,-0.16 -37.11,0 -117.48,-21.02 114,-521.59 -40.64,-887.84 -53.38,-915.64 -46.73,-102.11 -123.78,-182.59 -207.5,-205.13 -202.71,-54.42 -316.37,310.88 -379.77,453.85 72.12,-527.73 251.58,-714.12 388.39,-714.12 136.75,0 257.6,168.84 330.68,427.23 -0.05,0.02 -0.12,0.05 -0.24,0.05 126.82,471.15 57.09,888.03 39.3,974.78 m -677.72,230.91 c 73.05,258.3 171.17,374.05 307.98,374.05 132.31,0 242.51,-137.77 316.21,-382.09 -35.14,-8.82 -138.37,-39.67 -138.52,-39.74 -51.42,102.94 -95.91,154.11 -161.3,183.45 -122.72,55.21 -245.97,-12.18 -324.37,-135.67" /><path
         id="path20"
         style="fill:#4d494a;fill-opacity:1;fill-rule:nonzero;stroke:none"
         d="m 3247.64,2748.19 c 3.03,-6.2 5.52,-11.99 7.48,-17.36 1.95,-5.37 4.45,-11.05 7.49,-17.05 h 1.3 c -0.87,9.29 -1.47,18.29 -1.79,26.97 -0.33,8.68 -0.49,17.05 -0.49,25.12 v 122.15 h 41.66 v -229.13 h -53.37 l -68.68,131.47 c -1.73,3.51 -4.13,8.52 -7.17,15.04 -3.03,6.51 -6.07,13.48 -9.11,20.92 h -1.29 c 0.86,-8.88 1.52,-17.72 1.95,-26.51 0.42,-8.77 0.65,-17.52 0.65,-26.19 v -114.73 h -41.98 v 229.13 h 51.41 l 71.94,-139.83" /><path
         id="path22"
         style="fill:#4d494a;fill-opacity:1;fill-rule:nonzero;stroke:none"
         d="m 3484.92,2736.1 -29.94,69.45 c -2.61,6 -5.16,12.2 -7.65,18.62 -2.5,6.39 -4.39,12.59 -5.7,18.59 -1.08,-6 -2.93,-12.14 -5.53,-18.45 -2.6,-6.31 -5.21,-12.46 -7.81,-18.44 l -30.59,-69.77 z m 41.01,16.43 c 3.26,-6.62 5.58,-13.58 7,-20.93 1.41,-7.34 2.11,-14.93 2.11,-22.79 v -49.92 h -46.53 v 44.34 h -94.07 v -44.34 h -44.92 v 49.92 c 0,7.24 0.71,14.68 2.12,22.33 1.4,7.65 3.74,14.77 7,21.39 l 65.74,135.49 h 35.81 l 65.74,-135.49" /><path
         id="path24"
         style="fill:#4d494a;fill-opacity:1;fill-rule:nonzero;stroke:none"
         d="m 3699.42,2849.89 h -58.9 v -191 H 3593 v 191 h -59.56 v 38.13 h 165.98 v -38.13" /><path
         id="path26"
         style="fill:#4d494a;fill-opacity:1;fill-rule:nonzero;stroke:none"
         d="m 3783.41,2658.9 h -47.52 v 229.13 h 47.52 V 2658.9" /><path
         id="path28"
         style="fill:#4d494a;fill-opacity:1;fill-rule:nonzero;stroke:none"
         d="m 3924.67,2692.7 c 27.99,0 41.98,11.97 41.98,35.97 v 89.9 c 0,23.77 -13.99,35.65 -41.98,35.65 -27.78,0 -41.66,-11.88 -41.66,-35.65 v -89.9 c 0,-24 13.88,-35.97 41.66,-35.97 m 0,199.67 c 59.67,0 89.5,-25.52 89.5,-76.57 v -84.34 c 0,-51.06 -29.83,-76.6 -89.5,-76.6 -59.46,0 -89.18,25.54 -89.18,76.6 v 84.34 c 0,51.05 29.72,76.57 89.18,76.57" /><path
         id="path30"
         style="fill:#4d494a;fill-opacity:1;fill-rule:nonzero;stroke:none"
         d="m 4189.61,2748.19 c 3.04,-6.2 5.54,-11.99 7.49,-17.36 1.95,-5.37 4.44,-11.05 7.48,-17.05 h 1.31 c -0.87,9.29 -1.48,18.29 -1.8,26.97 -0.32,8.68 -0.49,17.05 -0.49,25.12 v 122.15 h 41.65 v -229.13 h -53.36 l -68.67,131.47 c -1.74,3.51 -4.13,8.52 -7.17,15.04 -3.03,6.51 -6.07,13.48 -9.11,20.92 h -1.3 c 0.86,-8.88 1.53,-17.72 1.96,-26.51 0.43,-8.77 0.65,-17.52 0.65,-26.19 v -114.73 h -41.99 v 229.13 h 51.43 l 71.92,-139.83" /><path
         id="path32"
         style="fill:#4d494a;fill-opacity:1;fill-rule:nonzero;stroke:none"
         d="m 4426.9,2736.1 -29.94,69.45 c -2.6,6 -5.15,12.2 -7.64,18.62 -2.5,6.39 -4.4,12.59 -5.7,18.59 -1.09,-6 -2.93,-12.14 -5.53,-18.45 -2.61,-6.31 -5.21,-12.46 -7.82,-18.44 l -30.59,-69.77 z m 41.02,16.43 c 3.25,-6.62 5.59,-13.58 6.99,-20.93 1.42,-7.34 2.12,-14.93 2.12,-22.79 v -49.92 h -46.54 v 44.34 h -94.06 v -44.34 h -44.92 v 49.92 c 0,7.24 0.71,14.68 2.11,22.33 1.41,7.65 3.75,14.77 7.01,21.39 l 65.74,135.49 h 35.8 l 65.75,-135.49" /><path
         id="path34"
         style="fill:#4d494a;fill-opacity:1;fill-rule:nonzero;stroke:none"
         d="m 4570.77,2697.03 h 86.25 v -38.13 h -133.76 v 229.13 h 47.51 v -191" /><path
         id="path36"
         style="fill:#4d494a;fill-opacity:1;fill-rule:nonzero;stroke:none"
         d="m 3208.57,2332.7 c 14.33,0 24.74,2.42 31.25,7.29 6.51,4.84 10.2,12.86 11.06,24.02 h 41.01 c -2.16,-24.6 -9.7,-42.28 -22.61,-53.02 -12.91,-10.75 -32.28,-16.13 -58.1,-16.13 -31.25,0 -54.35,6.26 -69.32,18.76 -14.98,12.51 -22.46,31.79 -22.46,57.84 v 84.34 c 0,25.83 7.48,45.04 22.46,57.66 14.97,12.6 38.07,18.91 69.32,18.91 27.12,0 47.14,-5.99 60.05,-17.99 12.91,-11.98 19.8,-30.18 20.66,-54.57 h -41.01 c -1.08,12.62 -4.82,21.5 -11.22,26.67 -6.4,5.18 -16.76,7.74 -31.09,7.74 -27.77,0 -41.66,-11.88 -41.66,-35.65 v -89.9 c 0,-24 13.89,-35.97 41.66,-35.97" /><path
         id="path38"
         style="fill:#4d494a;fill-opacity:1;fill-rule:nonzero;stroke:none"
         d="m 3501.19,2491.45 h -96.34 v -50.85 h 88.53 v -38.14 h -88.53 v -63.88 h 96.34 v -38.14 h -143.86 v 229.14 h 143.86 v -38.13" /><path
         id="path40"
         style="fill:#4d494a;fill-opacity:1;fill-rule:nonzero;stroke:none"
         d="m 3688.68,2388.19 c 3.04,-6.2 5.54,-11.99 7.49,-17.36 1.96,-5.37 4.45,-11.05 7.48,-17.05 h 1.3 c -0.86,9.29 -1.46,18.29 -1.79,26.97 -0.32,8.68 -0.48,17.05 -0.48,25.12 v 122.15 h 41.66 v -229.13 h -53.38 l -68.67,131.47 c -1.74,3.51 -4.13,8.52 -7.15,15.04 -3.05,6.51 -6.09,13.48 -9.12,20.92 h -1.31 c 0.87,-8.88 1.52,-17.72 1.95,-26.51 0.44,-8.77 0.65,-17.52 0.65,-26.19 v -114.73 h -41.98 v 229.13 h 51.43 l 71.92,-139.83" /><path
         id="path42"
         style="fill:#4d494a;fill-opacity:1;fill-rule:nonzero;stroke:none"
         d="m 3947.77,2489.89 h -58.9 v -191 h -47.52 v 191 h -59.56 v 38.13 h 165.98 v -38.13" /><path
         id="path44"
         style="fill:#4d494a;fill-opacity:1;fill-rule:nonzero;stroke:none"
         d="m 4087.09,2415.17 c 6.51,0 11.39,3.66 14.65,11.01 3.25,7.34 4.88,16.9 4.88,28.67 0,4.55 -0.27,8.94 -0.82,13.19 -0.54,4.24 -1.46,8 -2.76,11.32 -1.3,3.3 -3.04,5.88 -5.21,7.73 -2.17,1.87 -4.77,2.8 -7.81,2.8 h -58.26 v -74.72 z m 31.89,107.9 c 7.6,-3.3 13.78,-8.02 18.56,-14.11 4.76,-6.09 8.24,-13.38 10.41,-21.87 2.17,-8.47 3.25,-17.88 3.25,-28.2 0,-10.76 -0.81,-20.11 -2.44,-28.06 -1.62,-7.95 -4.06,-14.83 -7.31,-20.62 -3.27,-5.79 -7.22,-10.55 -11.89,-14.26 -4.66,-3.72 -10.03,-6.62 -16.1,-8.68 l 45.89,-88.37 h -52.73 l -36.45,81.53 h -38.41 v -81.53 h -47.52 v 229.13 h 107.08 c 10.85,0 20.07,-1.65 27.66,-4.96" /><path
         id="path46"
         style="fill:#4d494a;fill-opacity:1;fill-rule:nonzero;stroke:none"
         d="m 4366.37,2491.45 h -96.35 v -50.85 h 88.53 v -38.14 h -88.53 v -63.88 h 96.35 v -38.14 h -143.86 v 229.14 h 143.86 v -38.13" /><path
         id="path48"
         style="fill:#4d494a;fill-opacity:1;fill-rule:nonzero;stroke:none"
         d="m 3265.54,2129.89 h -93.74 v -55.5 h 86.57 v -38.13 h -86.57 v -97.36 h -47.51 v 229.12 h 141.25 v -38.13" /><path
         id="path50"
         style="fill:#4d494a;fill-opacity:1;fill-rule:nonzero;stroke:none"
         d="m 3391.18,1972.7 c 27.99,0 41.98,11.97 41.98,35.97 v 89.9 c 0,23.77 -13.99,35.65 -41.98,35.65 -27.77,0 -41.66,-11.88 -41.66,-35.65 v -89.9 c 0,-24 13.89,-35.97 41.66,-35.97 m 0,199.67 c 59.67,0 89.5,-25.52 89.5,-76.57 v -84.34 c 0,-51.06 -29.83,-76.6 -89.5,-76.6 -59.45,0 -89.18,25.54 -89.18,76.6 v 84.34 c 0,51.05 29.73,76.57 89.18,76.57" /><path
         id="path52"
         style="fill:#4d494a;fill-opacity:1;fill-rule:nonzero;stroke:none"
         d="m 3635.63,2055.17 c 6.51,0 11.38,3.66 14.64,11.01 3.26,7.34 4.89,16.9 4.89,28.67 0,4.55 -0.28,8.94 -0.82,13.19 -0.54,4.24 -1.47,8 -2.77,11.32 -1.3,3.3 -3.03,5.88 -5.2,7.73 -2.17,1.87 -4.78,2.8 -7.82,2.8 h -58.26 v -74.72 z m 31.89,107.9 c 7.6,-3.3 13.78,-8.02 18.55,-14.11 4.77,-6.09 8.25,-13.38 10.41,-21.87 2.18,-8.47 3.27,-17.88 3.27,-28.2 0,-10.76 -0.82,-20.11 -2.45,-28.06 -1.63,-7.95 -4.07,-14.83 -7.32,-20.62 -3.26,-5.79 -7.22,-10.55 -11.88,-14.26 -4.66,-3.72 -10.03,-6.62 -16.11,-8.68 l 45.89,-88.37 h -52.72 l -36.46,81.53 h -38.41 v -81.53 h -47.52 v 229.13 h 107.08 c 10.85,0 20.07,-1.65 27.67,-4.96" /><path
         id="path54"
         style="fill:#4d494a;fill-opacity:1;fill-rule:nonzero;stroke:none"
         d="m 3991.06,2028.19 c 3.04,-6.2 5.54,-11.99 7.49,-17.36 1.96,-5.37 4.45,-11.05 7.49,-17.05 h 1.29 c -0.86,9.29 -1.47,18.29 -1.78,26.97 -0.33,8.68 -0.49,17.05 -0.49,25.12 v 122.15 h 41.66 V 1938.9 h -53.38 l -68.67,131.46 c -1.74,3.51 -4.12,8.52 -7.16,15.04 -3.04,6.51 -6.07,13.48 -9.11,20.92 h -1.31 c 0.86,-8.88 1.52,-17.72 1.95,-26.51 0.44,-8.77 0.66,-17.52 0.66,-26.19 V 1938.9 h -41.99 v 229.12 h 51.43 l 71.92,-139.83" /><path
         id="path56"
         style="fill:#4d494a;fill-opacity:1;fill-rule:nonzero;stroke:none"
         d="m 4151.54,2008.66 c 0,-23.98 14.32,-35.97 42.96,-35.97 27.56,0 41.34,11.99 41.34,35.97 v 159.37 h 45.23 v -156.58 c 0,-51.06 -29.72,-76.59 -89.18,-76.59 -59.66,0 -89.5,25.53 -89.5,76.59 v 156.58 h 49.15 v -159.37" /><path
         id="path58"
         style="fill:#4d494a;fill-opacity:1;fill-rule:nonzero;stroke:none"
         d="m 4421.38,1972.7 c 14.31,0 24.72,2.42 31.24,7.29 6.51,4.84 10.19,12.86 11.05,24.02 h 41.03 c -2.18,-24.6 -9.72,-42.28 -22.63,-53.02 -12.91,-10.75 -32.28,-16.13 -58.1,-16.13 -31.24,0 -54.35,6.26 -69.32,18.76 -14.97,12.51 -22.45,31.79 -22.45,57.84 v 84.34 c 0,25.83 7.48,45.04 22.45,57.66 14.97,12.6 38.08,18.91 69.32,18.91 27.12,0 47.14,-5.99 60.05,-17.99 12.91,-11.98 19.81,-30.18 20.68,-54.57 h -41.03 c -1.07,12.62 -4.81,21.5 -11.22,26.67 -6.4,5.18 -16.76,7.74 -31.07,7.74 -27.78,0 -41.66,-11.88 -41.66,-35.65 v -89.9 c 0,-24 13.88,-35.97 41.66,-35.97" /><path
         id="path60"
         style="fill:#4d494a;fill-opacity:1;fill-rule:nonzero;stroke:none"
         d="m 4600.71,1977.03 h 86.25 V 1938.9 H 4553.2 v 229.13 h 47.51 v -191" /><path
         id="path62"
         style="fill:#4d494a;fill-opacity:1;fill-rule:nonzero;stroke:none"
         d="m 4890.41,2131.45 h -96.35 v -50.85 h 88.54 v -38.14 h -88.54 v -63.88 h 96.35 v -38.14 h -143.86 v 229.14 h 143.86 v -38.13" /><path
         id="path64"
         style="fill:#4d494a;fill-opacity:1;fill-rule:nonzero;stroke:none"
         d="m 5079.2,2016.1 -29.94,69.45 c -2.61,6 -5.16,12.2 -7.65,18.62 -2.5,6.39 -4.39,12.59 -5.69,18.59 -1.1,-6 -2.93,-12.14 -5.54,-18.45 -2.61,-6.31 -5.2,-12.46 -7.81,-18.44 l -30.6,-69.77 z m 41.01,16.43 c 3.26,-6.62 5.59,-13.58 7,-20.93 1.41,-7.34 2.12,-14.93 2.12,-22.79 v -49.91 h -46.55 v 44.33 h -94.06 v -44.33 h -44.91 v 49.91 c 0,7.24 0.7,14.68 2.11,22.33 1.4,7.65 3.75,14.77 7,21.39 l 65.74,135.49 h 35.8 l 65.75,-135.49" /><path
         id="path66"
         style="fill:#4d494a;fill-opacity:1;fill-rule:nonzero;stroke:none"
         d="m 5278.4,2055.17 c 6.5,0 11.39,3.66 14.65,11.01 3.25,7.34 4.88,16.9 4.88,28.67 0,4.55 -0.27,8.94 -0.81,13.19 -0.56,4.24 -1.47,8 -2.77,11.32 -1.3,3.3 -3.04,5.88 -5.21,7.73 -2.17,1.87 -4.77,2.8 -7.81,2.8 h -58.26 v -74.72 z m 31.88,107.9 c 7.61,-3.3 13.78,-8.02 18.57,-14.11 4.76,-6.09 8.24,-13.38 10.42,-21.87 2.17,-8.47 3.25,-17.88 3.25,-28.2 0,-10.76 -0.81,-20.11 -2.44,-28.06 -1.63,-7.95 -4.07,-14.83 -7.33,-20.62 -3.25,-5.79 -7.21,-10.55 -11.87,-14.26 -4.67,-3.72 -10.04,-6.62 -16.11,-8.68 l 45.88,-88.37 h -52.72 l -36.46,81.53 h -38.4 v -81.53 h -47.51 v 229.13 h 107.07 c 10.85,0 20.08,-1.65 27.65,-4.96" /><path
         id="path68"
         style="fill:#4d494a;fill-opacity:1;fill-rule:nonzero;stroke:none"
         d="m 3227.13,1695.17 c 6.51,0 11.39,3.67 14.65,11 3.25,7.35 4.88,16.91 4.88,28.68 0,4.55 -0.27,8.95 -0.82,13.19 -0.54,4.24 -1.46,8 -2.76,11.32 -1.3,3.3 -3.04,5.88 -5.21,7.74 -2.17,1.86 -4.77,2.79 -7.81,2.79 h -58.26 v -74.72 z m 31.89,107.9 c 7.6,-3.3 13.78,-8.01 18.56,-14.11 4.76,-6.1 8.24,-13.38 10.41,-21.86 2.18,-8.48 3.26,-17.88 3.26,-28.21 0,-10.76 -0.82,-20.1 -2.44,-28.07 -1.63,-7.95 -4.07,-14.82 -7.33,-20.61 -3.26,-5.79 -7.21,-10.54 -11.88,-14.26 -4.66,-3.72 -10.03,-6.62 -16.1,-8.68 l 45.88,-88.37 h -52.72 l -36.45,81.54 h -38.41 v -81.54 h -47.52 v 229.13 h 107.08 c 10.85,0 20.07,-1.65 27.66,-4.96" /><path
         id="path70"
         style="fill:#4d494a;fill-opacity:1;fill-rule:nonzero;stroke:none"
         d="m 3506.4,1771.45 h -96.34 v -50.85 h 88.52 v -38.15 h -88.52 v -63.87 h 96.34 v -38.13 h -143.86 v 229.12 h 143.86 v -38.12" /><path
         id="path72"
         style="fill:#4d494a;fill-opacity:1;fill-rule:nonzero;stroke:none"
         d="m 3696.98,1704.32 c 7.49,-3.41 14.22,-7.72 20.19,-12.87 5.96,-5.17 10.73,-11.53 14.31,-19.07 3.59,-7.55 5.38,-16.7 5.38,-27.44 0,-9.92 -1.9,-19.17 -5.7,-27.75 -3.8,-8.58 -9.49,-16.02 -17.09,-22.33 -7.6,-6.3 -17.14,-11.21 -28.64,-14.72 -11.49,-3.53 -24.84,-5.28 -40.03,-5.28 -27.78,0 -48.07,5.79 -60.87,17.37 -12.79,11.58 -19.52,28.42 -20.17,50.53 h 41 c 1.74,-11.36 6.24,-19.22 13.51,-23.55 7.27,-4.35 17.42,-6.51 30.44,-6.51 13.66,0 24.08,2.99 31.24,8.99 7.16,5.99 10.74,13.02 10.74,21.07 0,5.59 -0.92,10.19 -2.76,13.8 -1.85,3.63 -4.25,6.67 -7.17,9.15 -2.92,2.48 -6.34,4.5 -10.25,6.05 -3.91,1.55 -7.92,2.95 -12.04,4.19 l -32.22,9.92 c -8.25,2.48 -15.84,5.63 -22.79,9.45 -6.94,3.83 -12.96,8.43 -18.06,13.79 -5.1,5.38 -9.12,11.58 -12.04,18.61 -2.93,7.04 -4.4,15.09 -4.4,24.18 0,20.06 6.73,35.15 20.19,45.28 13.44,10.12 32.97,15.19 58.58,15.19 14.32,0 26.46,-1.14 36.45,-3.41 9.99,-2.27 18.12,-5.99 24.41,-11.16 6.29,-5.17 10.96,-11.99 13.99,-20.47 3.04,-8.47 4.78,-18.91 5.21,-31.31 h -40.03 c 0,6.2 -1.08,11.16 -3.25,14.88 -2.17,3.72 -5.05,6.56 -8.63,8.52 -3.58,1.97 -7.76,3.27 -12.53,3.88 -4.77,0.63 -9.76,0.93 -14.98,0.93 -23.65,0 -35.46,-7.23 -35.46,-21.7 0,-4.55 0.75,-8.37 2.27,-11.48 1.51,-3.09 3.53,-5.69 6.02,-7.74 2.5,-2.07 5.21,-3.79 8.14,-5.12 2.93,-1.34 5.69,-2.43 8.3,-3.26 l 35.8,-11.78 c 7.81,-2.48 15.46,-5.43 22.94,-8.83" /><path
         id="path74"
         style="fill:#4d494a;fill-opacity:1;fill-rule:nonzero;stroke:none"
         d="m 3947.77,1771.45 h -96.33 v -50.85 h 88.52 v -38.15 h -88.52 v -63.87 h 96.33 v -38.13 h -143.85 v 229.12 h 143.85 v -38.12" /><path
         id="path76"
         style="fill:#4d494a;fill-opacity:1;fill-rule:nonzero;stroke:none"
         d="m 4136.57,1656.1 -29.94,69.46 c -2.61,5.99 -5.16,12.19 -7.65,18.6 -2.5,6.41 -4.39,12.6 -5.7,18.6 -1.08,-6 -2.93,-12.14 -5.53,-18.44 -2.6,-6.32 -5.21,-12.46 -7.81,-18.45 l -30.59,-69.77 z m 41.01,16.43 c 3.25,-6.62 5.58,-13.58 7,-20.93 1.41,-7.34 2.11,-14.93 2.11,-22.79 v -49.91 h -46.54 v 44.33 h -94.06 v -44.33 h -44.92 v 49.91 c 0,7.24 0.71,14.69 2.12,22.33 1.4,7.65 3.74,14.77 7,21.39 l 65.75,135.5 h 35.8 l 65.74,-135.5" /><path
         id="path78"
         style="fill:#4d494a;fill-opacity:1;fill-rule:nonzero;stroke:none"
         d="m 4335.77,1695.17 c 6.52,0 11.4,3.67 14.65,11 3.25,7.35 4.88,16.91 4.88,28.68 0,4.55 -0.27,8.95 -0.81,13.19 -0.54,4.24 -1.46,8 -2.77,11.32 -1.3,3.3 -3.04,5.88 -5.21,7.74 -2.17,1.86 -4.77,2.79 -7.81,2.79 h -58.26 v -74.72 z m 31.89,107.9 c 7.6,-3.3 13.79,-8.01 18.56,-14.11 4.77,-6.1 8.24,-13.38 10.42,-21.86 2.17,-8.48 3.25,-17.88 3.25,-28.21 0,-10.76 -0.81,-20.1 -2.44,-28.07 -1.63,-7.95 -4.07,-14.82 -7.32,-20.61 -3.25,-5.79 -7.22,-10.54 -11.88,-14.26 -4.67,-3.72 -10.04,-6.62 -16.11,-8.68 l 45.89,-88.37 h -52.73 l -36.45,81.54 h -38.41 v -81.54 h -47.51 v 229.13 H 4340 c 10.85,0 20.08,-1.65 27.66,-4.96" /><path
         id="path80"
         style="fill:#4d494a;fill-opacity:1;fill-rule:nonzero;stroke:none"
         d="m 4538.56,1612.7 c 14.32,0 24.73,2.42 31.24,7.28 6.52,4.85 10.2,12.86 11.06,24.03 h 41.02 c -2.17,-24.6 -9.71,-42.27 -22.62,-53.02 -12.91,-10.75 -32.28,-16.13 -58.1,-16.13 -31.24,0 -54.35,6.26 -69.32,18.76 -14.97,12.51 -22.46,31.78 -22.46,57.84 v 84.33 c 0,25.83 7.49,45.05 22.46,57.67 14.97,12.6 38.08,18.91 69.32,18.91 27.12,0 47.14,-5.99 60.05,-17.99 12.91,-11.98 19.81,-30.17 20.67,-54.57 h -41.02 c -1.07,12.61 -4.82,21.51 -11.22,26.67 -6.4,5.17 -16.76,7.75 -31.08,7.75 -27.77,0 -41.66,-11.89 -41.66,-35.66 v -89.91 c 0,-23.98 13.89,-35.96 41.66,-35.96" /><path
         id="path82"
         style="fill:#4d494a;fill-opacity:1;fill-rule:nonzero;stroke:none"
         d="m 4717.91,1716.87 h 73.89 v 91.16 h 47.52 V 1578.9 h -47.52 v 100.14 h -73.89 V 1578.9 h -47.51 v 229.13 h 47.51 v -91.16" /><path
         id="path84"
         style="fill:#e01546;fill-opacity:1;fill-rule:nonzero;stroke:none"
         d="m 3223.13,1423.18 -51.88,-31.58 -9.92,12.96 46.78,36.16 z m 4.4,-139.96 c 6.33,-2.79 11.95,-6.34 16.86,-10.67 4.92,-4.31 8.89,-9.58 11.92,-15.79 3.02,-6.19 4.54,-13.8 4.54,-22.8 0,-8.45 -1.57,-16.24 -4.69,-23.34 -3.11,-7.11 -7.84,-13.28 -14.18,-18.5 -6.33,-5.22 -14.31,-9.31 -23.95,-12.28 -9.64,-2.97 -20.88,-4.45 -33.73,-4.45 -21.17,0 -37.43,4.77 -48.77,14.31 -11.34,9.52 -18.15,23.29 -20.41,41.3 h 27.21 c 1.7,-10.8 5.91,-19.13 12.62,-24.97 6.71,-5.85 16.4,-8.77 29.06,-8.77 8.7,0 16.3,0.93 22.83,2.82 6.51,1.89 11.9,4.41 16.15,7.57 4.26,3.14 7.42,6.78 9.5,10.92 2.08,4.14 3.12,8.55 3.12,13.24 0,6.47 -0.99,11.73 -2.98,15.79 -1.99,4.04 -4.63,7.42 -7.93,10.11 -3.31,2.7 -7.14,4.86 -11.49,6.48 -4.34,1.62 -8.88,3.15 -13.61,4.59 l -30.05,9.45 c -6.81,2.16 -13.13,4.76 -18.99,7.82 -5.86,3.07 -10.96,6.85 -15.32,11.34 -4.34,4.5 -7.79,9.63 -10.34,15.39 -2.56,5.76 -3.83,12.42 -3.83,19.97 0,16.38 5.73,28.71 17.15,36.99 11.44,8.27 27.74,12.4 48.91,12.4 23.62,0 40.82,-4.35 51.6,-13.08 10.77,-8.73 16.44,-22.36 17,-40.9 h -26.07 c -0.2,5.94 -1.32,10.94 -3.41,14.98 -2.07,4.06 -4.96,7.33 -8.64,9.85 -3.69,2.52 -8.09,4.37 -13.19,5.55 -5.1,1.17 -10.68,1.74 -16.72,1.74 -14.18,0 -24.62,-2.33 -31.33,-7.01 -6.71,-4.68 -10.07,-11.34 -10.07,-19.98 0,-5.21 0.9,-9.62 2.69,-13.23 1.8,-3.59 4.12,-6.6 6.95,-9.03 2.84,-2.44 5.95,-4.37 9.35,-5.81 3.41,-1.44 6.72,-2.7 9.93,-3.77 l 32.89,-10.81 c 6.62,-2.15 13.08,-4.62 19.42,-7.42" /><path
         id="path86"
         style="fill:#e01546;fill-opacity:1;fill-rule:nonzero;stroke:none"
         d="m 3394.93,1307.38 c 0,-4.14 0.37,-8.28 1.13,-12.42 0.76,-4.13 1.99,-8.36 3.69,-12.68 l 17.57,-46.16 8.51,-24.83 h 1.7 l 9.92,24.83 21.84,50.21 c 5.66,13.13 8.5,26.63 8.5,40.49 v 51.55 h 26.08 v -51.55 c 0,-6.84 0.66,-13.64 1.99,-20.38 1.32,-6.76 3.5,-13.45 6.51,-20.11 l 22.12,-50.21 9.64,-24.83 h 1.7 l 8.51,24.83 17.57,46.16 c 1.7,4.32 2.93,8.55 3.69,12.68 0.76,4.14 1.13,8.28 1.13,12.42 v 70.99 h 26.37 v -65.86 c 0,-13.32 -3.02,-27.89 -9.08,-43.73 l -34.86,-89.89 h -26.08 l -34.88,77.74 c -1.7,3.6 -3.26,7.88 -4.67,12.82 -1.42,4.95 -2.51,9.23 -3.27,12.83 -0.75,-3.6 -1.89,-7.88 -3.39,-12.83 -1.52,-4.94 -3.03,-9.22 -4.55,-12.82 l -34.87,-77.74 h -26.08 l -34.87,89.89 c -6.05,15.84 -9.07,30.41 -9.07,43.73 v 65.86 h 27.5 v -70.99" /><path
         id="path88"
         style="fill:#e01546;fill-opacity:1;fill-rule:nonzero;stroke:none"
         d="m 3732.86,1178.9 h -27.22 v 199.47 h 27.22 V 1178.9" /><path
         id="path90"
         style="fill:#e01546;fill-opacity:1;fill-rule:nonzero;stroke:none"
         d="m 3968.45,1356.51 h -86.48 v -60.74 h 79.39 v -21.85 h -79.39 v -73.16 h 86.48 v -21.86 h -113.69 v 199.47 h 113.69 v -21.86" /><path
         id="path92"
         style="fill:#e01546;fill-opacity:1;fill-rule:nonzero;stroke:none"
         d="m 4169.73,1274.72 c 9.07,0 15.83,3.91 20.27,11.74 4.43,7.83 6.66,18.32 6.66,31.45 0,5.21 -0.43,10.17 -1.28,14.84 -0.85,4.67 -2.22,8.77 -4.11,12.29 -1.89,3.5 -4.35,6.3 -7.37,8.37 -3.02,2.07 -6.8,3.1 -11.34,3.1 h -62.65 v -81.79 z m 25.8,99.47 c 6.04,-2.79 10.95,-6.7 14.73,-11.75 3.78,-5.03 6.53,-11.06 8.23,-18.07 1.7,-7.03 2.55,-14.87 2.55,-23.49 0,-19.62 -3.17,-34.7 -9.5,-45.22 -6.33,-10.52 -15.45,-17.22 -27.36,-20.1 l 40.26,-76.66 h -29.76 l -37.42,73.95 h -47.35 v -73.95 h -27.21 v 199.47 h 90.99 c 8.51,0 15.78,-1.39 21.84,-4.18" /><path
         id="path94"
         style="fill:#e01546;fill-opacity:1;fill-rule:nonzero;stroke:none"
         d="m 4364.2,1294.42 c 0,-3.96 -0.05,-8.32 -0.15,-13.09 -0.09,-4.77 -0.23,-9.22 -0.42,-13.37 2.08,2.89 4.91,6.36 8.51,10.41 3.58,4.04 6.99,7.87 10.2,11.46 l 51.61,58.31 c 5.46,6.3 8.21,13.76 8.21,22.41 v 7.82 h 27.22 v -5.13 c 0,-14.57 -5.86,-28.25 -17.58,-41.02 l -34.87,-38.06 49.9,-67.49 c 9.63,-12.95 14.46,-26.54 14.46,-40.76 v -7.01 h -27.22 v 7.28 c 0,9.71 -2.46,18 -7.37,24.84 l -46.21,66.12 -20.98,-23.48 c -2.64,-3.05 -5.39,-5.89 -8.22,-8.49 -2.84,-2.62 -5.49,-5.1 -7.94,-7.43 0.57,-5.76 0.85,-15.3 0.85,-28.61 v -30.23 h -27.22 v 199.47 h 27.22 v -83.95" /></g></g></svg>